<svg width="18" height="18" viewBox="0 0 18 18" fill="none" xmlns="http://www.w3.org/2000/svg">
<path d="M9.10082 10.2809C9.08408 10.2809 9.05896 10.2809 9.04222 10.2809C9.0171 10.2809 8.98361 10.2809 8.9585 10.2809C7.05801 10.2223 5.63477 8.74044 5.63477 6.91532C5.63477 5.05672 7.15011 3.54138 9.00873 3.54138C10.8673 3.54138 12.3827 5.05672 12.3827 6.91532C12.3743 8.74882 10.9427 10.2223 9.12594 10.2809C9.10919 10.2809 9.10919 10.2809 9.10082 10.2809ZM9.00036 4.78882C7.82827 4.78882 6.8822 5.74323 6.8822 6.90695C6.8822 8.05394 7.77804 8.98323 8.91664 9.02509C8.94175 9.01672 9.02547 9.01672 9.10919 9.02509C10.231 8.96649 11.1101 8.04556 11.1185 6.90695C11.1185 5.74323 10.1724 4.78882 9.00036 4.78882Z" fill="#6C7072"/>
<path d="M9.00059 18C6.74851 18 4.5969 17.1628 2.93086 15.6391C2.78016 15.5051 2.71318 15.3042 2.72993 15.1116C2.83877 14.1154 3.4583 13.1861 4.48806 12.4996C6.98293 10.8419 11.0266 10.8419 13.5131 12.4996C14.5429 13.1944 15.1624 14.1154 15.2713 15.1116C15.2964 15.3126 15.221 15.5051 15.0703 15.6391C13.4043 17.1628 11.2527 18 9.00059 18ZM4.04434 14.9442C5.4341 16.1079 7.18386 16.7442 9.00059 16.7442C10.8173 16.7442 12.5671 16.1079 13.9568 14.9442C13.8061 14.4335 13.4043 13.9396 12.8099 13.5377C10.7503 12.1647 7.25921 12.1647 5.18294 13.5377C4.58852 13.9396 4.19504 14.4335 4.04434 14.9442Z" fill="#6C7072"/>
<path d="M8.99996 17.9999C4.03533 17.9999 0 13.9646 0 8.99996C0 4.03533 4.03533 0 8.99996 0C13.9646 0 17.9999 4.03533 17.9999 8.99996C17.9999 13.9646 13.9646 17.9999 8.99996 17.9999ZM8.99996 1.25581C4.73021 1.25581 1.25581 4.73021 1.25581 8.99996C1.25581 13.2697 4.73021 16.7441 8.99996 16.7441C13.2697 16.7441 16.7441 13.2697 16.7441 8.99996C16.7441 4.73021 13.2697 1.25581 8.99996 1.25581Z" fill="#6C7072"/>
</svg>
