<svg width="14" height="14" viewBox="0 0 18 18" fill="none" xmlns="http://www.w3.org/2000/svg">
<path d="M13.8474 17.9804H4.15256C1.8586 17.9804 0 16.1134 0 13.8194V7.61573C0 6.4771 0.703256 5.04547 1.60744 4.34221L6.12 0.825935C7.47628 -0.228945 9.64465 -0.279178 11.0512 0.708726L16.2251 4.33384C17.2214 5.02873 18 6.51896 18 7.73294V13.8278C18 16.1134 16.1414 17.9804 13.8474 17.9804ZM6.89023 1.81384L2.37767 5.33012C1.78326 5.79896 1.25581 6.86221 1.25581 7.61573V13.8194C1.25581 15.4185 2.55349 16.7246 4.15256 16.7246H13.8474C15.4465 16.7246 16.7442 15.4269 16.7442 13.8278V7.73294C16.7442 6.92919 16.1665 5.8157 15.5051 5.36361L10.3312 1.73849C9.37674 1.06873 7.80279 1.10221 6.89023 1.81384Z" fill="#6C7072"/>
<path d="M9.00022 14.6315C8.65697 14.6315 8.37231 14.3469 8.37231 14.0036V11.492C8.37231 11.1488 8.65697 10.8641 9.00022 10.8641C9.34348 10.8641 9.62813 11.1488 9.62813 11.492V14.0036C9.62813 14.3469 9.34348 14.6315 9.00022 14.6315Z" fill="#6C7072"/>
</svg>
