<svg width="16" height="16" viewBox="0 0 16 16" fill="none" xmlns="http://www.w3.org/2000/svg">
<path d="M7.62794 15.2559C3.42327 15.2559 0 11.8326 0 7.62794C0 3.42327 3.42327 0 7.62794 0C11.8326 0 15.2559 3.42327 15.2559 7.62794C15.2559 11.8326 11.8326 15.2559 7.62794 15.2559ZM7.62794 1.11628C4.03351 1.11628 1.11628 4.04095 1.11628 7.62794C1.11628 11.2149 4.03351 14.1396 7.62794 14.1396C11.2224 14.1396 14.1396 11.2149 14.1396 7.62794C14.1396 4.04095 11.2224 1.11628 7.62794 1.11628Z" fill="#6C7072"/>
<path d="M15.4421 16C15.3007 16 15.1593 15.9479 15.0477 15.8363L13.5593 14.3479C13.3435 14.1321 13.3435 13.7749 13.5593 13.5591C13.7751 13.3433 14.1323 13.3433 14.3482 13.5591L15.8365 15.0475C16.0524 15.2633 16.0524 15.6205 15.8365 15.8363C15.7249 15.9479 15.5835 16 15.4421 16Z" fill="#6C7072"/>
</svg>
